<?xml version="1.0" encoding="utf-8"?>
<!-- Generator: Adobe Illustrator 23.1.0, SVG Export Plug-In . SVG Version: 6.00 Build 0)  -->
<svg version="1.1" id="objects" xmlns="http://www.w3.org/2000/svg" xmlns:xlink="http://www.w3.org/1999/xlink" x="0px" y="0px"
	 viewBox="0 0 146.5 181.8" style="enable-background:new 0 0 146.5 181.8;" xml:space="preserve">
<style type="text/css">
	.st0{fill:url(#SVGID_1_);}
	.st1{fill:url(#SVGID_2_);}
	.st2{fill:url(#SVGID_3_);}
	.st3{fill:#FFFFFF;}
</style>
<g>
	
		<linearGradient id="SVGID_1_" gradientUnits="userSpaceOnUse" x1="0" y1="74.3138" x2="48.6459" y2="74.3138" gradientTransform="matrix(1 0 0 -1 0 146.2108)">
		<stop  offset="0" style="stop-color:#195CA7"/>
		<stop  offset="1" style="stop-color:#02B2EB"/>
	</linearGradient>
	<path class="st0" d="M0,96.3V47.5h48.6c-1.3,12.9-7,24.4-15.7,33C24.3,89.1,12.8,94.9,0,96.3z"/>
	
		<linearGradient id="SVGID_2_" gradientUnits="userSpaceOnUse" x1="97.8872" y1="74.3138" x2="146.5331" y2="74.3138" gradientTransform="matrix(1 0 0 -1 0 146.2108)">
		<stop  offset="0" style="stop-color:#02B2EB"/>
		<stop  offset="1" style="stop-color:#195CA7"/>
	</linearGradient>
	<path class="st1" d="M146.5,47.5v48.8H97.9c1.3-12.9,7.1-24.4,15.7-33C122.2,54.7,133.7,48.9,146.5,47.5z"/>
	
		<linearGradient id="SVGID_3_" gradientUnits="userSpaceOnUse" x1="48.6459" y1="74.3138" x2="97.8872" y2="74.3138" gradientTransform="matrix(1 0 0 -1 0 146.2108)">
		<stop  offset="0" style="stop-color:#02B2EB"/>
		<stop  offset="1" style="stop-color:#195CA7"/>
	</linearGradient>
	<rect x="48.6" class="st2" width="49.2" height="143.8"/>
	<path class="st3" d="M1.5,96.3c-0.5,0-1.1,0-1.5,0c27.5-2.9,47.8-26.1,47.8-54.4c0-2,0.9-41.9,0.9-41.9h49.2
		C97.9,53.2,54.7,96.3,1.5,96.3z"/>
	<path class="st3" d="M144.9,47.5c0.5,0,1.1,0,1.5,0c-27.5,2.9-47.8,26.1-47.8,54.4c0,2-0.9,41.9-0.9,41.9H48.6
		C48.6,90.6,91.8,47.5,144.9,47.5z"/>
</g>
<g>
	<path class="st3" d="M6.1,160.8H9l7.7,17.2l7.7-17.2h2.9v20.8h-2.7v-15.5l-6.9,15.5h-1.9L8.8,166v15.5H6.1V160.8z"/>
	<path class="st3" d="M39,181.8c-4.7,0-8.1-3.3-8.1-8.5c0-5.2,3.3-8.5,8.1-8.5c4.8,0,7.9,3.4,7.9,7.9c0,0.6,0,1.1-0.1,1.7H33.7
		c0.2,3.3,2.5,5.2,5.3,5.2c2.5,0,4-1.3,4.6-3h2.9C45.7,179.5,43.1,181.8,39,181.8z M33.7,172.1h10.4c0-3.2-2.4-5-5.2-5
		C36.2,167.2,34,168.9,33.7,172.1z"/>
	<path class="st3" d="M57.3,164.8c2.6,0,4.9,1.3,6.1,3.2v-8.7h2.8v22.2h-2.8v-3.1c-1,1.8-3.1,3.4-6.1,3.4c-4.4,0-7.8-3.4-7.8-8.5
		C49.5,168.1,52.9,164.8,57.3,164.8z M57.8,167.2c-3,0-5.5,2.2-5.5,6.1c0,3.9,2.5,6.1,5.5,6.1s5.6-2.3,5.6-6.1
		C63.4,169.5,60.8,167.2,57.8,167.2z"/>
	<path class="st3" d="M70.3,160.6c0-1.1,0.8-1.9,1.9-1.9c1,0,1.8,0.8,1.8,1.9c0,1-0.8,1.9-1.8,1.9C71.1,162.4,70.3,161.6,70.3,160.6
		z M70.8,165.1h2.7v16.4h-2.7V165.1z"/>
	<path class="st3" d="M91.5,172.1H80.9v9.5h-2.7v-20.9h2.7v9.2h10.6v-9.2h2.7v20.9h-2.7V172.1z"/>
	<path class="st3" d="M106,181.8c-4.7,0-8.1-3.3-8.1-8.5c0-5.2,3.3-8.5,8.1-8.5c4.8,0,7.9,3.4,7.9,7.9c0,0.6,0,1.1-0.1,1.7h-13.1
		c0.2,3.3,2.5,5.2,5.3,5.2c2.5,0,4-1.3,4.6-3h2.9C112.7,179.5,110.1,181.8,106,181.8z M100.7,172.1h10.4c0-3.2-2.4-5-5.2-5
		C103.2,167.2,101,168.9,100.7,172.1z"/>
	<path class="st3" d="M124.3,164.8c3.1,0,5.2,1.6,6.1,3.3v-3h2.8v16.4h-2.8v-3.1c-1,1.8-3.1,3.3-6.1,3.3c-4.4,0-7.8-3.4-7.8-8.5
		C116.5,168.1,119.8,164.8,124.3,164.8z M124.8,167.2c-3,0-5.5,2.2-5.5,6.1c0,3.9,2.5,6.1,5.5,6.1s5.6-2.3,5.6-6.1
		C130.4,169.5,127.8,167.2,124.8,167.2z"/>
	<path class="st3" d="M137.8,159.4h2.7v22.2h-2.7V159.4z"/>
</g>
</svg>
